<svg width="26" height="26" viewBox="0 0 26 26" fill="none" xmlns="http://www.w3.org/2000/svg">
<g clip-path="url(#clip0_1460_10381)">
<path d="M17.7347 1.2998H8.26541C4.41855 1.2998 1.30005 4.4183 1.30005 8.26517V17.7344C1.30005 21.5813 4.41855 24.6998 8.26541 24.6998H17.7347C21.5815 24.6998 24.7 21.5813 24.7 17.7344V8.26517C24.7 4.4183 21.5815 1.2998 17.7347 1.2998Z" stroke="#3E3E3E" stroke-linecap="round" stroke-linejoin="round"/>
<path d="M15.4267 13H10.5738C8.60229 13 7.00408 13.9329 7.00408 15.0837V17.9163C7.00408 19.0671 6.83141 20 8.8029 20H17.1976C19.1691 20 18.9964 19.0671 18.9964 17.9163V15.0837C18.9964 13.9329 17.3982 13 15.4267 13Z" stroke="#3E3E3E" stroke-linecap="round" stroke-linejoin="round"/>
<path d="M13.0001 12.9997C15.154 12.9997 16.9001 11.2536 16.9001 9.09971C16.9001 6.9458 15.154 5.19971 13.0001 5.19971C10.8462 5.19971 9.1001 6.9458 9.1001 9.09971C9.1001 11.2536 10.8462 12.9997 13.0001 12.9997Z" stroke="#3E3E3E" stroke-linecap="round" stroke-linejoin="round"/>
</g>
<defs>
<clipPath id="clip0_1460_10381">
<rect width="26" height="26" fill="white"/>
</clipPath>
</defs>
</svg>
