<svg width="16" height="16" viewBox="0 0 16 16" fill="none" xmlns="http://www.w3.org/2000/svg">
						<path
							d="M2.9855 0.799805C2.60087 0.799805 2.05158 0.942899 1.60034 1.4291C1.32931 1.72113 0.199951 2.82151 0.199951 4.75605C0.199951 6.77297 1.59879 8.51331 1.76792 8.73691L1.76909 8.73809C1.75305 8.717 1.98377 9.05112 2.29175 9.45176C2.59973 9.8524 3.03039 10.3786 3.57144 10.9482C4.65352 12.0875 6.17492 13.4043 8.06323 14.2096C8.93282 14.5799 9.61886 14.8035 10.1386 14.9666C11.1019 15.2691 11.9792 15.2231 12.6382 15.126C13.1315 15.0533 13.6741 14.8165 14.2109 14.4768C14.7477 14.137 15.2738 13.7146 15.5058 13.0728C15.672 12.6127 15.7565 12.1876 15.7871 11.8377C15.8023 11.6628 15.8043 11.5084 15.7929 11.3654C15.7815 11.2225 15.7937 11.113 15.6605 10.8943C15.3812 10.4357 15.0648 10.4237 14.7347 10.2603C14.5513 10.1696 14.0291 9.9146 13.5054 9.66504C12.9823 9.41576 12.5293 9.19498 12.2503 9.09551C12.0741 9.0321 11.8589 8.94082 11.5484 8.97598C11.2379 9.01114 10.9312 9.23516 10.7527 9.4998C10.5835 9.75065 9.90218 10.5548 9.69448 10.7912C9.69172 10.7895 9.70974 10.7978 9.62768 10.7572C9.37081 10.6301 9.05664 10.522 8.59175 10.2768C8.12685 10.0315 7.5453 9.66938 6.90893 9.1084C5.96177 8.27455 5.29831 7.22647 5.08901 6.87481C5.10311 6.85803 5.08734 6.87834 5.11714 6.84902L5.11831 6.84785C5.33222 6.63716 5.52179 6.38552 5.68198 6.20098C5.9091 5.93933 6.00934 5.70867 6.11792 5.49316C6.33432 5.06367 6.21383 4.59105 6.08862 4.34238C6.09727 4.35958 6.02089 4.1899 5.93862 3.99551C5.85612 3.80056 5.75095 3.54783 5.63862 3.27832C5.41397 2.73931 5.16317 2.13475 5.01401 1.78066C4.8383 1.36359 4.60059 1.06195 4.28979 0.91699C3.979 0.772033 3.70442 0.813245 3.69331 0.812694C3.47152 0.802463 3.22697 0.799805 2.9855 0.799805ZM2.9855 1.9998C3.21682 1.9998 3.44488 2.00262 3.63589 2.01152C3.83239 2.02131 3.82016 2.02212 3.78237 2.00449C3.74398 1.98659 3.79607 1.98077 3.90776 2.2459C4.05381 2.59261 4.30585 3.19935 4.5312 3.74004C4.64388 4.01038 4.74933 4.26409 4.83354 4.46309C4.91776 4.66208 4.9634 4.77318 5.01636 4.8791L5.01753 4.88144C5.06945 4.98389 5.06486 4.9183 5.04683 4.9541C4.92021 5.2054 4.90303 5.2671 4.77495 5.41465C4.57994 5.63931 4.38102 5.88985 4.27573 5.99356C4.18361 6.08405 4.0174 6.22502 3.91362 6.50097C3.80968 6.77735 3.8582 7.15655 4.02495 7.43965C4.24697 7.81656 4.97859 9.00739 6.11558 10.0084C6.83161 10.6396 7.49869 11.0574 8.03159 11.3385C8.56449 11.6196 8.99853 11.7838 9.09565 11.8318C9.32628 11.946 9.57834 12.0346 9.87143 11.9994C10.1645 11.9642 10.4172 11.7864 10.5781 11.6045L10.5792 11.6033C10.7933 11.3606 11.4295 10.6342 11.7347 10.1865C11.7477 10.1911 11.7434 10.1875 11.8449 10.224L11.846 10.2252C11.8924 10.2417 12.4725 10.5014 12.9898 10.7479C13.5071 10.9943 14.0321 11.2505 14.2027 11.335C14.4489 11.4568 14.5652 11.5361 14.5953 11.5365C14.5973 11.5893 14.5993 11.6465 14.5917 11.7334C14.5707 11.9744 14.5063 12.3079 14.3773 12.665C14.3141 12.8399 13.985 13.2004 13.5699 13.4631C13.1548 13.7258 12.6496 13.9113 12.4624 13.9389C11.8999 14.0218 11.232 14.052 10.4984 13.8217C9.98975 13.662 9.35553 13.4554 8.53433 13.1057C6.86884 12.3954 5.45331 11.1867 4.44214 10.1221C3.93656 9.58975 3.53149 9.09422 3.24331 8.71934C2.95567 8.34515 2.83007 8.15044 2.72534 8.01269L2.72417 8.01152C2.53827 7.76569 1.39995 6.18231 1.39995 4.75605C1.39995 3.2466 2.10105 2.65466 2.48042 2.2459C2.67958 2.0313 2.89732 1.9998 2.9855 1.9998Z"
							fill="#F5F5F5" />
					</svg>