<svg width="38" height="28" viewBox="0 0 38 28" fill="none" xmlns="http://www.w3.org/2000/svg">
<g clip-path="url(#clip0_1267_10426)">
<path d="M10.7352 14.1776L4.07642 12.2344L1.0249 14.3198L7.23656 18.3898" stroke="#2699D6" stroke-miterlimit="10" stroke-linecap="round" stroke-linejoin="round"/>
<path d="M19.0405 16.1953L12.5712 19.0883L7.23608 18.3863" stroke="#2699D6" stroke-miterlimit="10" stroke-linecap="round" stroke-linejoin="round"/>
<path d="M19.0394 16.1959L17.5389 26.5313C17.4581 27.0613 18.1351 27.4077 18.5923 27.0682C20.3202 25.7903 21.6691 25.0126 22.672 24.0536C23.6773 23.0946 24.3366 21.9567 24.6903 19.9561L25.8397 11.3322L36.1032 3.51347C36.7221 3.07069 36.8307 2.24706 36.3432 1.68498C34.8427 1.22614 33.6529 0.953125 32.4934 0.953125C30.2174 0.953125 28.0677 2.00388 23.9249 4.74776L20.934 6.88597L14.9522 11.1601L10.7336 14.1747" stroke="#2699D6" stroke-miterlimit="10" stroke-linecap="round" stroke-linejoin="round"/>
<path d="M14.9417 11.1461L4.47108 8.70504C3.90018 8.57427 3.79914 7.87453 4.31446 7.61758C5.65581 6.94308 6.58036 6.381 7.56301 5.98639C9.43737 5.23618 11.5239 5.09624 17.1217 5.96574L20.921 6.86737" stroke="#2699D6" stroke-miterlimit="10" stroke-linecap="round" stroke-linejoin="round"/>
</g>
<defs>
<clipPath id="clip0_1267_10426">
<rect width="38" height="28" fill="white"/>
</clipPath>
</defs>
</svg>
