<svg width="41" height="28" viewBox="0 0 41 28" fill="none" xmlns="http://www.w3.org/2000/svg">
<path d="M30 16.0163C30 16.0163 19.2403 14.2097 18.8056 17.7446C18.4551 20.5944 25.6054 20.0759 25.3056 22.9294C24.9884 25.9477 17 26.9621 17 26.9621" stroke="#2699D6" stroke-linecap="round"/>
<path d="M37.4536 6.0525L34 13.0499L30.5464 6.0525C29.2832 3.49297 31.1457 0.496681 34 0.496681C36.8543 0.496681 38.7168 3.49297 37.4536 6.0525Z" stroke="#2699D6"/>
<path d="M14.3043 13.2735L9.5 22.882L4.69574 13.2734C2.91004 9.70205 5.50705 5.5 9.5 5.5C13.4929 5.5 16.09 9.70205 14.3043 13.2735Z" stroke="#2699D6"/>
<path d="M36.5 16.5433C36.5 16.6287 36.4084 16.8574 35.9076 17.0942C35.4453 17.3127 34.7714 17.4616 34 17.4616C33.2286 17.4616 32.5547 17.3127 32.0924 17.0942C31.5916 16.8574 31.5 16.6287 31.5 16.5433C31.5 16.4579 31.5916 16.2292 32.0924 15.9924C32.5547 15.7739 33.2286 15.625 34 15.625C34.7714 15.625 35.4453 15.7739 35.9076 15.9924C36.4084 16.2292 36.5 16.4579 36.5 16.5433Z" stroke="#2699D6"/>
<path d="M12.5 26.5C12.5 26.538 12.4841 26.6161 12.3691 26.7326C12.2519 26.8514 12.0575 26.9812 11.7779 27.1011C11.2204 27.34 10.4154 27.5 9.5 27.5C8.58459 27.5 7.77957 27.34 7.22209 27.1011C6.94245 26.9812 6.7481 26.8514 6.63092 26.7326C6.51586 26.6161 6.5 26.538 6.5 26.5C6.5 26.462 6.51586 26.3839 6.63092 26.2674C6.7481 26.1486 6.94245 26.0188 7.22209 25.8989C7.77957 25.66 8.58459 25.5 9.5 25.5C10.4154 25.5 11.2204 25.66 11.7779 25.8989C12.0575 26.0188 12.2519 26.1486 12.3691 26.2674C12.4841 26.3839 12.5 26.462 12.5 26.5Z" stroke="#2699D6"/>
<circle cx="9.5" cy="10.5" r="2" stroke="#2699D6"/>
<path d="M35.5 4.78169C35.5 5.52394 34.8552 6.17276 34 6.17276C33.1448 6.17276 32.5 5.52394 32.5 4.78169C32.5 4.03944 33.1448 3.39062 34 3.39062C34.8552 3.39062 35.5 4.03944 35.5 4.78169Z" stroke="#2699D6"/>
</svg>
