<svg width="20" height="28" viewBox="0 0 20 28" fill="none" xmlns="http://www.w3.org/2000/svg">
<path d="M10 12C8.6815 12 7.39257 11.6481 6.29624 10.9888C5.19991 10.3295 4.34543 9.39246 3.84085 8.2961C3.33626 7.19974 3.20424 5.99335 3.46148 4.82946C3.71871 3.66557 4.35365 2.59648 5.286 1.75736C6.21835 0.918247 7.40623 0.346802 8.69944 0.115291C9.99265 -0.11622 11.3331 0.00259972 12.5513 0.456725C13.7694 0.910851 14.8106 1.67989 15.5432 2.66658C16.2757 3.65328 16.6667 4.81331 16.6667 6C16.6667 6.78793 16.4943 7.56815 16.1592 8.2961C15.8242 9.02405 15.3331 9.68549 14.7141 10.2426C14.095 10.7998 13.3601 11.2417 12.5513 11.5433C11.7424 11.8448 10.8755 12 10 12ZM10 0.800003C8.85731 0.800003 7.74023 1.10498 6.79008 1.67636C5.83993 2.24774 5.09938 3.05987 4.66207 4.01005C4.22477 4.96022 4.11035 6.00577 4.33328 7.01447C4.55622 8.02317 5.1065 8.94972 5.91454 9.67696C6.72257 10.4042 7.75207 10.8994 8.87285 11.1001C9.99363 11.3007 11.1553 11.1977 12.2111 10.8042C13.2669 10.4106 14.1692 9.7441 14.8041 8.88897C15.439 8.03383 15.7778 7.02846 15.7778 6C15.7755 4.62153 15.166 3.30011 14.0829 2.32538C12.9999 1.35065 11.5317 0.802118 10 0.800003Z" fill="#2699D6"/>
<path d="M19.5578 28H0.480381C0.35389 28 0.23258 27.9253 0.143137 27.7924C0.0536943 27.6595 0.00344589 27.4792 0.00344589 27.2912V18.7856C-0.00114863 18.7196 -0.00114863 18.6531 0.00344589 18.5872C0.461303 16.234 1.91118 14.6037 3.2466 13.1719C3.56138 12.8175 3.85708 12.4915 4.1337 12.1513C4.22865 12.042 4.34742 11.9889 4.46716 12.0019C4.5869 12.015 4.69916 12.0935 4.78233 12.2222C5.46164 13.2477 6.27973 14.0472 7.1825 14.5677C8.08526 15.0883 9.05211 15.318 10.0191 15.2416C10.9801 15.3153 11.9408 15.0841 12.8371 14.5635C13.7334 14.0429 14.5449 13.2448 15.2177 12.2222C15.3008 12.0935 15.4131 12.015 15.5328 12.0019C15.6526 11.9889 15.7714 12.042 15.8663 12.1513C16.1429 12.4915 16.4386 12.8175 16.7534 13.1578C18.0602 14.5754 19.5387 16.234 19.9966 18.5872C20.0011 18.6531 20.0011 18.7196 19.9966 18.7856V27.2912C19.9969 27.4698 19.952 27.642 19.8706 27.7734C19.7893 27.9048 19.6775 27.9857 19.5578 28ZM0.957316 26.5824H19.0808V18.8849C18.6898 17.042 17.3734 15.5819 16.2192 14.306L15.6374 13.6539C14.1035 15.7151 12.0849 16.7948 10.0191 16.6592C7.954 16.7872 5.9373 15.7084 4.40078 13.6539L3.80939 14.306C2.64566 15.5819 1.32932 17.042 0.947777 18.8849L0.957316 26.5824Z" fill="#2699D6"/>
</svg>
