<svg width="20" height="20" viewBox="0 0 20 20" fill="none" xmlns="http://www.w3.org/2000/svg">
<path d="M19.8664 0.131531C19.7669 0.0315834 19.6334 -0.00612413 19.5034 0.00614219H0.499284C0.369352 -0.00566982 0.23624 0.0320377 0.136747 0.131531C0.095859 0.172419 0.066329 0.220121 0.0445222 0.270549C0.017718 0.328701 0 0.392304 0 0.46045C0 0.593108 0.0586057 0.709865 0.149467 0.792549L6.81462 10.1236V19.5105C6.81099 19.5795 6.82143 19.6486 6.8496 19.7131C6.91729 19.8785 7.07903 19.9952 7.26893 19.9952C7.40658 19.9952 7.52561 19.9307 7.6092 19.8344L13.0518 14.4041C13.1549 14.3009 13.1913 14.1619 13.1749 14.0279V10.1259L19.8664 0.774831C20.0445 0.597197 20.0445 0.309166 19.8664 0.131531ZM12.3953 9.67109C12.3004 9.76604 12.26 9.89143 12.2663 10.0159V13.9016L7.72324 18.4342V10.0159C7.7296 9.89188 7.68916 9.76604 7.59421 9.67109L1.33975 0.914758H18.6616L12.3953 9.67109Z" fill="#A3CCEE"/>
</svg>
