<svg width="21" height="28" viewBox="0 0 21 28" fill="none" xmlns="http://www.w3.org/2000/svg">
<path d="M0.5 10.4219C0.5 7.9366 2.51472 5.92188 5 5.92188H16C18.4853 5.92188 20.5 7.93659 20.5 10.4219V27.5025H0.5V10.4219Z" stroke="#2699D6"/>
<path d="M5.5 1.47712L5.5908 1.72953L5.70978 2.06028H6.06129H6.20438L6.13386 2.10657L5.80424 2.32287L5.93769 2.69384L5.99228 2.84557L5.77432 2.70254L5.5 2.52252L5.22568 2.70254L5.00772 2.84557L5.06231 2.69384L5.19576 2.32287L4.86614 2.10657L4.79562 2.06028H4.93871H5.29022L5.4092 1.72953L5.5 1.47712Z" stroke="#2699D6"/>
<path d="M10.5 1.47712L10.5908 1.72953L10.7098 2.06028H11.0613H11.2044L11.1339 2.10657L10.8042 2.32287L10.9377 2.69384L10.9923 2.84557L10.7743 2.70254L10.5 2.52252L10.2257 2.70254L10.0077 2.84557L10.0623 2.69384L10.1958 2.32287L9.86614 2.10657L9.79562 2.06028H9.93871H10.2902L10.4092 1.72953L10.5 1.47712Z" stroke="#2699D6"/>
<path d="M15.5 1.47712L15.5908 1.72953L15.7098 2.06028H16.0613H16.2044L16.1339 2.10657L15.8042 2.32287L15.9377 2.69384L15.9923 2.84557L15.7743 2.70254L15.5 2.52252L15.2257 2.70254L15.0077 2.84557L15.0623 2.69384L15.1958 2.32287L14.8661 2.10657L14.7956 2.06028H14.9387H15.2902L15.4092 1.72953L15.5 1.47712Z" stroke="#2699D6"/>
<rect x="4.5" y="10.4375" width="4" height="4.41936" stroke="#2699D6"/>
<rect x="12.5" y="10.4375" width="4" height="4.41936" stroke="#2699D6"/>
<rect x="12.5" y="18.5703" width="4" height="4.41936" stroke="#2699D6"/>
<rect x="4.5" y="18.5703" width="4" height="4.41936" stroke="#2699D6"/>
</svg>
