<svg width="136" height="33" viewBox="0 0 136 33" fill="none" xmlns="http://www.w3.org/2000/svg">
<path d="M49.2211 24.9255C49.2211 25.4163 49.1241 25.8806 48.9464 26.3184C48.7687 26.7561 48.5103 27.1673 48.171 27.5122C47.8318 27.8704 47.4118 28.149 46.8787 28.3612C46.3457 28.5734 45.7641 28.6796 45.118 28.6796C44.1487 28.6796 43.3895 28.4541 42.8402 27.9898C42.291 27.5255 42.0002 26.902 42.0002 26.0928C42.0002 25.4428 42.1618 24.8326 42.4687 24.2888C42.7756 23.7316 43.2602 23.2939 43.8903 22.949C44.5203 22.6041 45.2633 22.4316 46.1033 22.4316C47.0403 22.4316 47.7834 22.6572 48.3487 23.1214C48.9464 23.5857 49.2211 24.1827 49.2211 24.9255ZM46.071 22.9357C45.538 22.9357 45.0533 23.0286 44.6172 23.2143C44.181 23.4 43.8256 23.6388 43.5672 23.9439C43.2926 24.249 43.0987 24.5806 42.9533 24.952C42.8079 25.3235 42.7433 25.7082 42.7433 26.1194C42.7433 26.7694 42.9695 27.2734 43.4056 27.6449C43.8418 28.0163 44.4395 28.2153 45.1987 28.2153C45.6349 28.2153 46.0226 28.149 46.3941 28.0163C46.7657 27.8837 47.0726 27.7112 47.331 27.499C47.5895 27.2867 47.7995 27.0347 47.9934 26.7561C48.171 26.4775 48.3164 26.1857 48.3972 25.8806C48.478 25.5755 48.5264 25.2571 48.5264 24.952C48.5264 24.3418 48.3164 23.851 47.8803 23.4929C47.428 23.1214 46.8303 22.9357 46.071 22.9357Z" fill="#2699D6"/>
<path d="M54.035 27.2335C53.6311 28.1886 52.8396 28.6661 51.6604 28.6661C51.0142 28.6661 50.5296 28.5202 50.1742 28.2151C49.8188 27.9232 49.6411 27.4988 49.6411 26.9681C49.6411 26.5304 49.7542 26.1059 49.9642 25.7212C50.1742 25.3365 50.5134 25.0049 50.9496 24.7529C51.3857 24.5008 51.9027 24.3682 52.4681 24.3682C53.0334 24.3682 53.4858 24.4876 53.825 24.7263C54.1642 24.9651 54.3258 25.2835 54.3258 25.6947V25.7477H53.7119V25.7345C53.7119 25.4426 53.5988 25.2039 53.3727 25.0314C53.1465 24.859 52.8396 24.7794 52.4357 24.7794C51.9834 24.7794 51.5796 24.8855 51.2404 25.111C50.9011 25.3365 50.6588 25.6018 50.4973 25.9335C50.3357 26.2518 50.255 26.5967 50.255 26.9416C50.255 27.3528 50.3842 27.6845 50.6265 27.91C50.8688 28.1355 51.2242 28.2549 51.6927 28.2549C52.0804 28.2549 52.4357 28.162 52.7265 27.9896C53.0173 27.8171 53.2434 27.5651 53.3888 27.2467H54.035V27.2335Z" fill="#2699D6"/>
<path d="M59.5919 27.2326C59.2204 28.1877 58.445 28.6653 57.2496 28.6653C56.6034 28.6653 56.1027 28.5061 55.7311 28.201C55.3596 27.8959 55.1819 27.4714 55.1819 26.9143C55.1819 26.1847 55.4404 25.5745 55.9734 25.0837C56.4904 24.5929 57.1365 24.3408 57.9119 24.3408C58.5258 24.3408 59.0104 24.4867 59.3496 24.7786C59.705 25.0704 59.8665 25.4816 59.8665 25.999C59.8665 26.1714 59.8504 26.3704 59.8019 26.5959H55.8119C55.7796 26.7286 55.7796 26.8347 55.7796 26.9275C55.7796 27.3388 55.9088 27.6571 56.1673 27.8959C56.4257 28.1214 56.7973 28.2408 57.2657 28.2408C57.6696 28.2408 58.0088 28.1479 58.2996 27.9755C58.5904 27.803 58.8004 27.5377 58.9458 27.2194H59.5919V27.2326ZM55.8927 26.2245H59.2365C59.2527 26.1449 59.2527 26.0786 59.2527 25.999C59.2527 25.6143 59.1235 25.3092 58.8811 25.0969C58.6388 24.8847 58.2834 24.7786 57.8473 24.7786C57.3627 24.7786 56.9588 24.9112 56.6034 25.1633C56.2642 25.4153 56.0219 25.7735 55.8927 26.2245Z" fill="#2699D6"/>
<path d="M61.288 25.6682C61.5142 24.8059 62.2411 24.3682 63.4526 24.3682C64.018 24.3682 64.4542 24.4478 64.7611 24.6202C65.068 24.7927 65.2134 25.0314 65.2134 25.3365C65.2134 25.4692 65.165 25.6947 65.068 26.0263L64.6965 27.3263C64.6157 27.6712 64.5673 27.8702 64.5673 27.9232C64.5673 28.0957 64.6642 28.1753 64.8419 28.1753C64.9065 28.1753 65.0034 28.162 65.1488 28.1488L65.0519 28.5334C64.8742 28.5732 64.7288 28.5865 64.5996 28.5865C64.2119 28.5865 64.0019 28.4273 64.0019 28.109C64.0019 28.0559 64.018 27.9896 64.0342 27.8967C63.598 28.4008 62.968 28.6528 62.1603 28.6528C61.6757 28.6528 61.288 28.5467 61.0134 28.3477C60.7226 28.1488 60.5934 27.8702 60.5934 27.5386C60.5934 27.3263 60.6418 27.1406 60.7549 26.9814C60.868 26.8222 60.9972 26.7028 61.1426 26.61C61.288 26.5171 61.498 26.4508 61.7403 26.3845C61.9826 26.3314 62.2088 26.2916 62.4026 26.2651C62.5965 26.2386 62.8226 26.2253 63.0972 26.212C63.1134 26.212 63.1619 26.212 63.2749 26.212C63.3719 26.212 63.4526 26.212 63.5011 26.1988C63.5496 26.1988 63.6142 26.1855 63.7111 26.1855C63.808 26.1855 63.8888 26.1722 63.9373 26.159C63.9857 26.1457 64.0665 26.1324 64.1311 26.1192C64.2119 26.1059 64.2603 26.0794 64.3088 26.0528C64.3573 26.0263 64.4057 25.9998 64.438 25.96C64.5511 25.8406 64.6157 25.6416 64.6157 25.3631C64.6157 24.9784 64.228 24.7927 63.4526 24.7927C63.0003 24.7927 62.6611 24.859 62.4026 25.0049C62.1442 25.1508 61.9665 25.3631 61.8695 25.6682H61.288ZM64.4057 26.3447C64.3573 26.3845 64.2765 26.4243 64.1957 26.4508C64.1149 26.4773 64.0019 26.5039 63.8888 26.5171C63.7596 26.5304 63.6626 26.5437 63.598 26.5569C63.5172 26.5702 63.4042 26.5702 63.2588 26.5835C63.1134 26.5967 63.0165 26.5967 63.0165 26.5967C62.8226 26.61 62.6611 26.6233 62.5319 26.6365C62.4026 26.6498 62.2411 26.6763 62.0634 26.7161C61.8857 26.7559 61.7403 26.809 61.6272 26.862C61.5142 26.9284 61.4172 27.0079 61.3365 27.1141C61.2557 27.2202 61.2234 27.3528 61.2234 27.512C61.2234 27.7508 61.3203 27.9365 61.5303 28.0692C61.7403 28.2018 62.0149 28.2681 62.3703 28.2681C62.8226 28.2681 63.2265 28.1488 63.5657 27.91C63.7596 27.7773 63.9211 27.6314 64.018 27.4722C64.1149 27.313 64.2119 27.061 64.3249 26.7028L64.4057 26.3447Z" fill="#2699D6"/>
<path d="M68.0081 24.4743L67.8142 25.2304C68.3312 24.66 68.9773 24.3682 69.7689 24.3682C70.2212 24.3682 70.5766 24.461 70.8512 24.6467C71.1258 24.8324 71.2712 25.0845 71.2712 25.3896C71.2712 25.5355 71.2227 25.7875 71.1258 26.1457L70.4796 28.5334H69.8496L70.4958 26.1059C70.5766 25.8539 70.6089 25.6416 70.6089 25.4692C70.6089 25.2702 70.512 25.0978 70.3343 24.9784C70.1404 24.859 69.8981 24.7927 69.5912 24.7927C69.0258 24.7927 68.5573 24.9651 68.1696 25.31C67.8789 25.562 67.6689 25.9335 67.5235 26.4508L66.9581 28.5334H66.3442L67.4266 24.4743H68.0081Z" fill="#2699D6"/>
<path d="M83.5158 22.4317L83.3866 22.9225H78.9281L78.3304 25.1246H82.4981L82.3689 25.6154H78.2173L77.5712 28.0296H82.1266L81.9812 28.5205H76.6989L78.3304 22.4185H83.5158V22.4317Z" fill="#2699D6"/>
<path d="M88.6367 24.4741L86.3913 26.4374L87.7644 28.5333H87.0536L85.9552 26.7425L83.9682 28.5465H83.209L85.6805 26.4108L84.469 24.4874H85.1798L86.1329 26.1057L87.9098 24.4874H88.6367V24.4741Z" fill="#2699D6"/>
<path d="M90.5267 24.4749L90.3328 25.2442C90.7528 24.6606 91.399 24.3555 92.2552 24.3555C92.8367 24.3555 93.289 24.5147 93.6282 24.8198C93.9675 25.1249 94.1452 25.5361 94.1452 26.0667C94.1452 26.3718 94.0806 26.6901 93.9675 26.982C93.8544 27.2871 93.6929 27.5657 93.4667 27.8177C93.2567 28.0697 92.9659 28.2687 92.6267 28.4279C92.2875 28.5871 91.8998 28.6667 91.4798 28.6667C90.9952 28.6667 90.6075 28.5738 90.2844 28.3881C89.9613 28.2024 89.7836 27.9503 89.719 27.632L89.0728 30.0728H88.459L89.9451 24.5014H90.5267V24.4749ZM92.0775 24.7667C91.6252 24.7667 91.2375 24.8993 90.8982 25.1514C90.559 25.4034 90.3328 25.6953 90.1713 26.0402C90.0259 26.3718 89.9451 26.7167 89.9451 27.0616C89.9451 27.433 90.0744 27.7381 90.349 27.9503C90.6075 28.1626 90.979 28.282 91.4152 28.282C91.8513 28.282 92.239 28.1626 92.5782 27.9238C92.9175 27.685 93.1598 27.4065 93.3052 27.0748C93.4506 26.7432 93.5313 26.4116 93.5313 26.0799C93.5313 25.6953 93.4021 25.3769 93.1598 25.1381C92.9175 24.8861 92.5459 24.7667 92.0775 24.7667Z" fill="#2699D6"/>
<path d="M99.3467 27.2326C98.9751 28.1877 98.1997 28.6653 97.0043 28.6653C96.3582 28.6653 95.8574 28.5061 95.4859 28.201C95.1143 27.8959 94.9366 27.4714 94.9366 26.9143C94.9366 26.1847 95.1951 25.5745 95.7282 25.0837C96.2451 24.5929 96.8913 24.3408 97.6667 24.3408C98.2805 24.3408 98.7651 24.4867 99.1044 24.7786C99.4597 25.0704 99.6213 25.4816 99.6213 25.999C99.6213 26.1714 99.6051 26.3704 99.5567 26.5959H95.5666C95.5343 26.7286 95.5343 26.8347 95.5343 26.9275C95.5343 27.3388 95.6636 27.6571 95.922 27.8959C96.1805 28.1214 96.552 28.2408 97.0205 28.2408C97.4243 28.2408 97.7636 28.1479 98.0544 27.9755C98.3451 27.803 98.5551 27.5377 98.7005 27.2194H99.3467V27.2326ZM95.6636 26.2245H99.0074C99.0236 26.1449 99.0236 26.0786 99.0236 25.999C99.0236 25.6143 98.8944 25.3092 98.6521 25.0969C98.4097 24.8847 98.0544 24.7786 97.6182 24.7786C97.1336 24.7786 96.7297 24.9112 96.3743 25.1633C96.019 25.4153 95.7767 25.7735 95.6636 26.2245Z" fill="#2699D6"/>
<path d="M103.967 24.4215L103.821 24.9388C103.66 24.9255 103.579 24.9255 103.563 24.9255C103.143 24.9255 102.804 25.0051 102.497 25.1776C102.19 25.3633 101.947 25.5888 101.802 25.8408C101.657 26.0929 101.527 26.4245 101.414 26.8092L100.93 28.547H100.316L101.414 24.4878H101.996L101.721 25.4296C102.206 24.7531 102.836 24.4082 103.627 24.4082C103.773 24.4082 103.886 24.4215 103.967 24.4215Z" fill="#2699D6"/>
<path d="M107.488 24.4743L107.375 24.8855H106.341L105.679 27.3396C105.615 27.5651 105.582 27.7376 105.582 27.8437C105.582 28.0427 105.76 28.1488 106.131 28.1488C106.261 28.1488 106.438 28.1355 106.648 28.0957L106.535 28.5335C106.325 28.56 106.131 28.5733 105.938 28.5733C105.275 28.5733 104.936 28.3743 104.936 27.9631C104.936 27.8569 104.968 27.6447 105.049 27.3529L105.711 24.8988H104.791L104.904 24.4876H105.808L106.148 23.2539H106.761L106.438 24.4876H107.488V24.4743Z" fill="#2699D6"/>
<path d="M112.367 25.6682H111.753V25.6151C111.753 25.0712 111.333 24.7927 110.477 24.7927C110.105 24.7927 109.798 24.859 109.588 24.9784C109.362 25.0978 109.249 25.2569 109.249 25.4692C109.249 25.562 109.281 25.6549 109.33 25.7212C109.378 25.8008 109.475 25.8671 109.605 25.9335C109.734 25.9998 109.831 26.0396 109.895 26.0661C109.96 26.0926 110.089 26.1324 110.299 26.1988C110.509 26.2651 110.622 26.2916 110.638 26.2916C111.107 26.4375 111.446 26.5835 111.672 26.7426C111.898 26.9018 112.011 27.1273 112.011 27.4324C112.011 27.711 111.898 27.9498 111.688 28.1355C111.478 28.3212 111.22 28.4671 110.929 28.5467C110.638 28.6263 110.315 28.6661 109.976 28.6661C109.362 28.6661 108.878 28.5467 108.522 28.3212C108.167 28.0957 107.989 27.7773 107.989 27.3661C107.989 27.313 107.989 27.2732 108.005 27.2202H108.603V27.3263C108.603 27.6181 108.732 27.8437 108.975 28.0161C109.217 28.1753 109.572 28.2549 110.025 28.2549C110.428 28.2549 110.768 28.1885 111.01 28.0426C111.268 27.8967 111.398 27.711 111.398 27.4855C111.398 27.4324 111.398 27.3794 111.381 27.3263C111.365 27.2732 111.349 27.2335 111.301 27.1937C111.268 27.1539 111.22 27.1141 111.188 27.0875C111.155 27.061 111.107 27.0212 111.026 26.9814C110.945 26.9416 110.897 26.9151 110.848 26.8886C110.816 26.862 110.735 26.8355 110.638 26.7957C110.541 26.7559 110.461 26.7294 110.412 26.7161C110.364 26.7028 110.283 26.6763 110.154 26.6365C110.025 26.5967 109.944 26.5702 109.895 26.5569C109.701 26.4906 109.54 26.4375 109.411 26.3845C109.298 26.3314 109.168 26.2651 109.023 26.1855C108.894 26.1059 108.781 25.9998 108.716 25.8937C108.651 25.7743 108.619 25.6416 108.619 25.4957C108.619 25.1508 108.797 24.8855 109.136 24.6733C109.475 24.4743 109.944 24.3682 110.509 24.3682C111.075 24.3682 111.527 24.4743 111.85 24.6865C112.173 24.8988 112.318 25.1906 112.318 25.5753V25.6682H112.367Z" fill="#2699D6"/>
<path d="M48.0579 6.91136C48.9302 6.50013 49.9156 6.28789 51.0303 6.28789C51.9349 6.28789 52.7749 6.43381 53.518 6.72564C54.261 7.01748 54.891 7.4287 55.3918 7.95931C55.8926 8.48992 56.2157 9.11338 56.3611 9.81644H59.6565C59.5111 8.66237 59.0426 7.61441 58.2672 6.69911C57.4918 5.77055 56.4741 5.05422 55.2303 4.55014C53.9703 4.04607 52.5649 3.78076 50.9979 3.78076C49.2695 3.78076 47.7025 4.09913 46.3456 4.73586C44.9725 5.37259 43.9064 6.26136 43.131 7.3889C42.3556 8.51645 41.9679 9.78991 41.9679 11.2093C41.9679 12.6419 42.3556 13.9154 43.131 15.0562C43.9064 16.197 44.9725 17.0725 46.3456 17.7225C47.7187 18.3592 49.2695 18.6776 50.9979 18.6776C52.5487 18.6776 53.9541 18.4256 55.198 17.9082C56.458 17.4042 57.4595 16.6878 58.2349 15.7593C59.0103 14.8307 59.4788 13.796 59.6565 12.6419H56.3449C56.1995 13.345 55.8764 13.9685 55.3918 14.4991C54.9072 15.0297 54.2772 15.4409 53.5341 15.7327C52.791 16.0246 51.951 16.1705 51.0141 16.1705C49.8995 16.1705 48.9141 15.9582 48.0418 15.547C47.1695 15.1358 46.5072 14.5521 46.0225 13.8093C45.5379 13.0664 45.2956 12.2042 45.2956 11.2358C45.2956 10.2675 45.5379 9.41848 46.0225 8.66236C46.5072 7.90625 47.1856 7.32258 48.0579 6.91136Z" fill="#2699D6"/>
<path d="M74.9058 11.1833C75.5681 10.4803 75.8912 9.61803 75.8912 8.5966C75.8912 7.19049 75.2773 6.08948 74.0496 5.29356C72.8219 4.49765 71.1581 4.08643 69.0419 4.08643H62.2411V18.3598H65.5203V13.0935H68.4442H68.4765L73.2419 18.3598H77.1512L72.0465 12.7354C73.3065 12.4037 74.2596 11.8864 74.9058 11.1833ZM71.675 10.2813C71.045 10.6925 70.1888 10.8915 69.1065 10.8915H65.5526V6.36804H69.1065C70.205 6.36804 71.0611 6.56702 71.675 6.97825C72.305 7.38947 72.6119 7.93334 72.6119 8.6364C72.6119 9.32619 72.305 9.87007 71.675 10.2813Z" fill="#2699D6"/>
<path d="M91.2698 12.0721C91.2698 12.9343 91.0759 13.6639 90.7044 14.2741C90.3328 14.8843 89.7836 15.3619 89.0728 15.6802C88.362 16.0119 87.522 16.171 86.5528 16.171C85.5836 16.171 84.7274 16.0119 84.0328 15.6802C83.322 15.3486 82.7889 14.8843 82.4012 14.2741C82.0135 13.6639 81.8358 12.9343 81.8358 12.0721V4.08643H78.5728V12.1384C78.5728 13.4517 78.8958 14.6058 79.5581 15.5874C80.2205 16.569 81.1412 17.3251 82.3528 17.8557C83.5643 18.3863 84.9536 18.6649 86.5528 18.6649C88.152 18.6649 89.5574 18.3996 90.769 17.8557C91.9805 17.3251 92.9175 16.5557 93.5798 15.5874C94.2421 14.6058 94.5651 13.4649 94.5651 12.1384V4.08643H91.2859V12.0721H91.2698Z" fill="#2699D6"/>
<path d="M101.834 4.08643H98.5552V18.3598H101.834V4.08643Z" fill="#2699D6"/>
<path d="M111.026 6.27462C111.591 6.12871 112.221 6.06238 112.9 6.06238C114.128 6.06238 115.145 6.30116 115.953 6.79197C116.761 7.26952 117.245 7.94604 117.391 8.82155H120.831C120.702 7.69401 120.266 6.75217 119.523 5.99606C118.78 5.23994 117.843 4.6828 116.712 4.32464C115.581 3.96648 114.338 3.78076 112.981 3.78076C111.688 3.78076 110.493 3.93994 109.411 4.24504C108.328 4.56341 107.456 5.02769 106.778 5.66442C106.115 6.30116 105.776 7.07054 105.776 7.9991C105.776 8.98073 106.115 9.76338 106.794 10.3471C107.472 10.9307 108.28 11.3685 109.249 11.647C110.202 11.9256 111.398 12.1777 112.835 12.4164H112.868C114.031 12.6021 114.903 12.7746 115.501 12.9205C116.098 13.0664 116.567 13.2654 116.922 13.5307C117.261 13.796 117.439 14.1674 117.439 14.645C117.439 15.2154 117.084 15.6531 116.373 15.9582C115.662 16.2633 114.677 16.4225 113.449 16.4225C112.561 16.4225 111.769 16.3164 111.091 16.0909C110.412 15.8654 109.863 15.5338 109.443 15.096C109.023 14.6583 108.748 14.1276 108.603 13.5174H105.34C105.469 14.6185 105.905 15.5603 106.632 16.3562C107.359 17.1388 108.312 17.7358 109.491 18.1205C110.671 18.5052 111.995 18.7041 113.481 18.7041C115.032 18.7041 116.357 18.5317 117.471 18.2001C118.586 17.8684 119.426 17.3776 119.991 16.7409C120.557 16.1042 120.848 15.3613 120.848 14.5389C120.848 13.6236 120.541 12.8807 119.943 12.3103C119.329 11.7266 118.554 11.2889 117.601 10.9705C116.648 10.6522 115.468 10.3736 114.095 10.1348C114.063 10.1215 114.031 10.1083 113.982 10.1083C113.934 10.1083 113.901 10.095 113.869 10.0817C113.821 10.0685 113.772 10.0552 113.724 10.0552C113.675 10.0552 113.627 10.042 113.578 10.0287C112.512 9.85624 111.704 9.69705 111.123 9.55114C110.558 9.40522 110.089 9.20624 109.75 8.9542C109.411 8.70216 109.233 8.35727 109.233 7.91951C109.233 7.50829 109.394 7.17666 109.718 6.89809C110.024 6.61952 110.461 6.42054 111.026 6.27462Z" fill="#2699D6"/>
<path d="M132.608 6.40784H135.16H136V4.08643H135.16H132.608H123.578V18.3598H136V16.0384H126.808V12.3772H132.64H136V10.0558H130.217H126.808V6.40784H132.608Z" fill="#2699D6"/>
<path d="M19.9178 32.6195C12.2931 32.9246 6.60694 30.9879 3.23077 26.292C2.82692 25.7216 2.47154 25.1512 2.19692 24.5808C0.339215 20.8135 1.32461 17.1125 4.95924 13.7564C6.46156 12.3768 8.19003 11.3421 10.1285 10.6258C12.8585 9.61763 15.9762 9.2462 19.4009 9.45845C15.1847 10.5064 12.0993 12.2972 10.1285 14.4064C8.49695 16.1441 7.62464 18.1206 7.49541 20.0972C7.38233 21.7421 7.60849 23.2278 8.15772 24.5808C9.67619 28.3747 13.7308 30.9879 19.9178 32.6195Z" fill="#E9B528"/>
<path d="M26.4763 0V19.0621C26.4763 19.6723 26.3956 20.2958 26.2017 20.8927C26.1694 20.9989 26.1209 21.0917 26.0886 21.1978C25.4102 22.856 23.9563 24.2223 22.0663 25.0182C22.0178 25.0447 21.9532 25.058 21.9048 25.0845C21.4848 25.2437 21.0486 25.3764 20.5963 25.4692C20.5317 25.4825 20.4671 25.4958 20.4024 25.509C20.3055 25.5356 20.2086 25.5488 20.0955 25.5621C20.0632 25.5754 20.0148 25.5754 19.9824 25.5754C19.9017 25.5886 19.8209 25.6019 19.7401 25.6152C19.6917 25.6284 19.6594 25.6284 19.6109 25.6284C19.5301 25.6417 19.4494 25.6417 19.3524 25.6549C19.2878 25.6682 19.2232 25.6682 19.1586 25.6682C18.9001 25.6815 18.6417 25.6947 18.3832 25.6947C14.9586 25.6947 12.0024 23.9968 10.7585 21.5693C10.4678 21.0121 10.2739 20.4152 10.177 19.7917C10.1124 20.2825 10.0801 20.7733 10.0801 21.2509C10.0801 21.3703 10.0801 21.4897 10.0962 21.6091V21.6223C10.0962 21.7682 10.1124 21.9274 10.1124 22.0733C10.1124 22.1264 10.1285 22.1927 10.1285 22.2458C10.1447 22.3784 10.1608 22.5111 10.177 22.6437C10.1932 22.7233 10.1932 22.7897 10.2093 22.8692C10.2255 22.9886 10.2416 23.0948 10.2739 23.2141C10.2901 23.307 10.3062 23.3866 10.3385 23.4795C10.3547 23.5856 10.387 23.6784 10.4032 23.7846C10.4355 23.8907 10.4678 23.9835 10.5001 24.0897C10.5162 24.1692 10.5485 24.2621 10.5809 24.3417C10.6132 24.4611 10.6616 24.5672 10.7101 24.6866C10.7262 24.7529 10.7585 24.8192 10.7909 24.8856C10.8393 25.0182 10.9039 25.1641 10.9685 25.2968C10.9847 25.3366 11.0009 25.3896 11.0332 25.4294C11.1301 25.6152 11.227 25.7876 11.3239 25.96C12.1316 27.3396 13.327 28.5866 14.9586 29.6876C14.9747 29.7008 14.9747 29.7008 14.9909 29.7141C15.0555 29.7539 15.104 29.7937 15.1686 29.8335C15.8309 30.258 16.4932 30.6029 17.1878 30.8417C18.9971 31.5978 21.0648 32.009 23.2294 32.009C29.1417 32.009 34.1495 28.8917 35.9425 24.5672C36.3948 23.4795 36.6372 22.3121 36.6372 21.105V0H26.4763Z" fill="#2699D6"/>
<path d="M7.51158 0C7.22081 0 6.93004 0 6.63927 0H6.26773H3.10156H0V18.8366C0.0161539 18.757 0.0484618 18.6642 0.0646158 18.5713C0.549234 16.8866 1.92232 13.6764 5.5408 11.1959C5.97696 10.8907 6.42927 10.5989 6.89773 10.3336C7.88312 9.78974 8.96544 9.35198 10.1124 8.99382V5.4918V0H7.51158Z" fill="#2699D6"/>
</svg>
