<svg width="30" height="30" viewBox="0 0 30 30" fill="none" xmlns="http://www.w3.org/2000/svg">
<path d="M19.375 17.5H18.3875L18.0375 17.1625C19.2625 15.7375 20 13.8875 20 11.875C20 9.72012 19.144 7.65349 17.6202 6.12976C16.0965 4.60602 14.0299 3.75 11.875 3.75C9.72012 3.75 7.65349 4.60602 6.12976 6.12976C4.60602 7.65349 3.75 9.72012 3.75 11.875C3.75 14.0299 4.60602 16.0965 6.12976 17.6202C7.65349 19.144 9.72012 20 11.875 20C13.8875 20 15.7375 19.2625 17.1625 18.0375L17.5 18.3875V19.375L23.75 25.625L25.625 23.75L19.375 17.5ZM11.875 17.5C8.75 17.5 6.25 15 6.25 11.875C6.25 8.75 8.75 6.25 11.875 6.25C15 6.25 17.5 8.75 17.5 11.875C17.5 15 15 17.5 11.875 17.5ZM8.75 11.25H15V12.5H8.75V11.25Z" fill="#3E3E3E"/>
</svg>
