<svg width="28" height="60" viewBox="0 0 28 60" fill="none" xmlns="http://www.w3.org/2000/svg">
<path d="M7.41211 6.58823C7.41211 2.94965 10.3618 0 14.0003 0C17.6389 0 20.5886 2.94965 20.5886 6.58824V38.7097H7.41211V6.58823Z" fill="#2699D6"/>
<ellipse cx="14" cy="45.8983" rx="14" ry="14.1014" fill="#2699D6"/>
<path d="M9.88281 8.81686C9.88281 6.54275 11.7263 4.69922 14.0005 4.69922C16.2746 4.69922 18.1181 6.54275 18.1181 8.81686V37.8789H9.88281V8.81686Z" fill="white"/>
<ellipse cx="14.0187" cy="45.9157" rx="10.7248" ry="10.8024" fill="white"/>
<ellipse cx="14.0008" cy="45.898" rx="5.21569" ry="5.25346" fill="#2699D6"/>
<path d="M12.9023 18.2426C12.9023 17.6361 13.394 17.1445 14.0004 17.1445C14.6068 17.1445 15.0984 17.6361 15.0984 18.2426V44.7943H12.9023V18.2426Z" fill="#2699D6"/>
</svg>
